<?xml version="1.0" standalone="no"?>
<svg xmlns:xlink="http://www.w3.org/1999/xlink" id="wave" style="transform:rotate(0deg); transition: 0.3s" viewBox="0 0 1440 490" version="1.1" xmlns="http://www.w3.org/2000/svg"><defs><linearGradient id="sw-gradient-0" x1="0" x2="0" y1="1" y2="0"><stop stop-color="rgba(255, 204, 0, 1)" offset="0%"/><stop stop-color="rgba(255, 179, 11, 1)" offset="100%"/></linearGradient></defs><path style="transform:translate(0, 0px); opacity:1" fill="url(#sw-gradient-0)" d="M0,392L360,392L720,392L1080,0L1440,294L1800,196L2160,98L2520,0L2880,441L3240,49L3600,147L3960,0L4320,441L4680,196L5040,0L5400,294L5760,245L6120,294L6480,49L6840,196L7200,49L7560,343L7920,392L8280,98L8640,441L8640,490L8280,490L7920,490L7560,490L7200,490L6840,490L6480,490L6120,490L5760,490L5400,490L5040,490L4680,490L4320,490L3960,490L3600,490L3240,490L2880,490L2520,490L2160,490L1800,490L1440,490L1080,490L720,490L360,490L0,490Z"/></svg>