<?xml version="1.0" standalone="no"?>
<svg viewBox="0 0 200 200" xmlns="http://www.w3.org/2000/svg">
  <path fill="#9D4EDD" d="M33.7,-51.6C44,-45.7,53,-37,63,-25.7C73,-14.3,83.9,-0.3,84.1,13.5C84.3,27.3,73.7,41,62.3,53.9C51,66.9,38.9,79.3,24.5,83.6C10,87.9,-6.8,84.2,-23.5,79.6C-40.3,74.9,-56.9,69.3,-61.2,57.1C-65.4,44.8,-57.2,25.9,-51,12.6C-44.8,-0.8,-40.4,-8.6,-38.6,-19.6C-36.7,-30.6,-37.3,-44.8,-31.3,-52.6C-25.2,-60.5,-12.6,-62,-0.5,-61.3C11.7,-60.5,23.3,-57.5,33.7,-51.6Z" transform="translate(100 100)" />
</svg>
