<?xml version="1.0" standalone="no"?>
<svg viewBox="0 0 200 200" xmlns="http://www.w3.org/2000/svg">
  <path fill="#CF5C36" d="M31.2,-48.9C44,-40.3,60.5,-37.7,68.3,-28.8C76.2,-19.8,75.4,-4.6,66.7,4.9C58.1,14.4,41.5,18,32.1,26.6C22.8,35.3,20.6,49,14.1,53.4C7.5,57.8,-3.3,53,-17.9,52.6C-32.5,52.1,-50.9,56.1,-53.2,48.7C-55.6,41.4,-41.9,22.7,-43.6,6.7C-45.3,-9.4,-62.3,-22.8,-65.6,-35.9C-68.8,-48.9,-58.3,-61.6,-45.1,-70.1C-31.8,-78.5,-15.9,-82.8,-3.4,-77.5C9.2,-72.3,18.3,-57.6,31.2,-48.9Z" transform="translate(100 100)" />
</svg>
