<?xml version="1.0" standalone="no"?>
<svg viewBox="0 0 200 200" xmlns="http://www.w3.org/2000/svg">
  <path fill="#CF5C36" d="M17,-27.1C26.2,-20.6,40.5,-22.8,47.9,-18.4C55.3,-14,55.9,-2.9,51.5,5.3C47.1,13.6,37.7,19.1,32.5,32.1C27.3,45,26.3,65.4,18,73.3C9.8,81.2,-5.7,76.6,-15.8,67.4C-26,58.3,-30.8,44.6,-39,34.3C-47.1,24,-58.5,17,-62.3,7.4C-66,-2.2,-62.1,-14.4,-55.4,-23.7C-48.7,-33,-39.1,-39.4,-29.4,-45.7C-19.7,-51.9,-9.8,-57.9,-2.9,-53.3C3.9,-48.8,7.9,-33.6,17,-27.1Z" transform="translate(100 100)" />
</svg>
