<?xml version="1.0" standalone="no"?>
<svg xmlns:xlink="http://www.w3.org/1999/xlink" id="wave" style="transform:rotate(0deg); transition: 0.3s" viewBox="0 0 1440 490" version="1.1" xmlns="http://www.w3.org/2000/svg"><defs><linearGradient id="sw-gradient-0" x1="0" x2="0" y1="1" y2="0"><stop stop-color="#ff5e5b" offset="0%"/><stop stop-color="rgba(255, 179, 11, 1)" offset="100%"/></linearGradient></defs><path style="transform:translate(0, 0px); opacity:1" fill="url(#sw-gradient-0)" d="M0,147L20,138.8C40,131,80,114,120,98C160,82,200,65,240,81.7C280,98,320,147,360,155.2C400,163,440,131,480,106.2C520,82,560,65,600,81.7C640,98,680,147,720,163.3C760,180,800,163,840,171.5C880,180,920,212,960,220.5C1000,229,1040,212,1080,245C1120,278,1160,359,1200,375.7C1240,392,1280,343,1320,277.7C1360,212,1400,131,1440,106.2C1480,82,1520,114,1560,122.5C1600,131,1640,114,1680,106.2C1720,98,1760,98,1800,106.2C1840,114,1880,131,1920,187.8C1960,245,2000,343,2040,318.5C2080,294,2120,147,2160,98C2200,49,2240,98,2280,106.2C2320,114,2360,82,2400,106.2C2440,131,2480,212,2520,269.5C2560,327,2600,359,2640,375.7C2680,392,2720,392,2760,367.5C2800,343,2840,294,2860,269.5L2880,245L2880,490L2860,490C2840,490,2800,490,2760,490C2720,490,2680,490,2640,490C2600,490,2560,490,2520,490C2480,490,2440,490,2400,490C2360,490,2320,490,2280,490C2240,490,2200,490,2160,490C2120,490,2080,490,2040,490C2000,490,1960,490,1920,490C1880,490,1840,490,1800,490C1760,490,1720,490,1680,490C1640,490,1600,490,1560,490C1520,490,1480,490,1440,490C1400,490,1360,490,1320,490C1280,490,1240,490,1200,490C1160,490,1120,490,1080,490C1040,490,1000,490,960,490C920,490,880,490,840,490C800,490,760,490,720,490C680,490,640,490,600,490C560,490,520,490,480,490C440,490,400,490,360,490C320,490,280,490,240,490C200,490,160,490,120,490C80,490,40,490,20,490L0,490Z"/></svg>