<?xml version="1.0" standalone="no"?>
<svg xmlns:xlink="http://www.w3.org/1999/xlink" id="wave" style="transform:rotate(180deg); transition: 0.3s" viewBox="0 0 1440 490" version="1.1" xmlns="http://www.w3.org/2000/svg"><defs><linearGradient id="sw-gradient-0" x1="0" x2="0" y1="1" y2="0"><stop stop-color="rgba(46.255, 230.382, 217.908, 1)" offset="0%"/><stop stop-color="rgba(72, 229, 194, 1)" offset="100%"/></linearGradient></defs><path style="transform:translate(0, 0px); opacity:1" fill="url(#sw-gradient-0)" d="M0,343L24,359.3C48,376,96,408,144,359.3C192,310,240,180,288,171.5C336,163,384,278,432,334.8C480,392,528,392,576,351.2C624,310,672,229,720,212.3C768,196,816,245,864,285.8C912,327,960,359,1008,334.8C1056,310,1104,229,1152,163.3C1200,98,1248,49,1296,98C1344,147,1392,294,1440,367.5C1488,441,1536,441,1584,408.3C1632,376,1680,310,1728,302.2C1776,294,1824,343,1872,326.7C1920,310,1968,229,2016,171.5C2064,114,2112,82,2160,81.7C2208,82,2256,114,2304,179.7C2352,245,2400,343,2448,367.5C2496,392,2544,343,2592,334.8C2640,327,2688,359,2736,326.7C2784,294,2832,196,2880,171.5C2928,147,2976,196,3024,196C3072,196,3120,147,3168,163.3C3216,180,3264,261,3312,269.5C3360,278,3408,212,3432,179.7L3456,147L3456,490L3432,490C3408,490,3360,490,3312,490C3264,490,3216,490,3168,490C3120,490,3072,490,3024,490C2976,490,2928,490,2880,490C2832,490,2784,490,2736,490C2688,490,2640,490,2592,490C2544,490,2496,490,2448,490C2400,490,2352,490,2304,490C2256,490,2208,490,2160,490C2112,490,2064,490,2016,490C1968,490,1920,490,1872,490C1824,490,1776,490,1728,490C1680,490,1632,490,1584,490C1536,490,1488,490,1440,490C1392,490,1344,490,1296,490C1248,490,1200,490,1152,490C1104,490,1056,490,1008,490C960,490,912,490,864,490C816,490,768,490,720,490C672,490,624,490,576,490C528,490,480,490,432,490C384,490,336,490,288,490C240,490,192,490,144,490C96,490,48,490,24,490L0,490Z"/></svg>