<?xml version="1.0" standalone="no"?><svg xmlns="http://www.w3.org/2000/svg" viewBox="0 0 1440 320"><path fill="#cf5c36" fill-opacity="1" d="M0,32L34.3,53.3C68.6,75,137,117,206,160C274.3,203,343,245,411,256C480,267,549,245,617,213.3C685.7,181,754,139,823,106.7C891.4,75,960,53,1029,64C1097.1,75,1166,117,1234,149.3C1302.9,181,1371,203,1406,213.3L1440,224L1440,320L1405.7,320C1371.4,320,1303,320,1234,320C1165.7,320,1097,320,1029,320C960,320,891,320,823,320C754.3,320,686,320,617,320C548.6,320,480,320,411,320C342.9,320,274,320,206,320C137.1,320,69,320,34,320L0,320Z"></path></svg>